<mxfile host="65bd71144e">
    <diagram id="Fn6G-MOoSsQujYgqZSsN" name="Page-1">
        <mxGraphModel dx="253" dy="543" grid="1" gridSize="10" guides="1" tooltips="1" connect="1" arrows="1" fold="1" page="1" pageScale="1" pageWidth="850" pageHeight="1100" math="0" shadow="0">
            <root>
                <mxCell id="0"/>
                <mxCell id="1" parent="0"/>
                <mxCell id="56" value="" style="rounded=0;whiteSpace=wrap;html=1;strokeColor=#000000;" vertex="1" parent="1">
                    <mxGeometry x="200" y="10" width="60" height="240" as="geometry"/>
                </mxCell>
                <mxCell id="55" value="" style="rounded=0;whiteSpace=wrap;html=1;strokeColor=#000000;" vertex="1" parent="1">
                    <mxGeometry x="260" y="10" width="90" height="240" as="geometry"/>
                </mxCell>
                <mxCell id="54" value="" style="rounded=0;whiteSpace=wrap;html=1;strokeColor=#000000;" vertex="1" parent="1">
                    <mxGeometry x="110" y="100" width="60" height="250" as="geometry"/>
                </mxCell>
                <mxCell id="49" value="" style="rounded=0;whiteSpace=wrap;html=1;strokeColor=#000000;" vertex="1" parent="1">
                    <mxGeometry x="10" y="100" width="100" height="250" as="geometry"/>
                </mxCell>
                <mxCell id="2" value="Hypervisor" style="rounded=0;whiteSpace=wrap;html=1;fillColor=#d80073;fontColor=#ffffff;strokeColor=#000000;fontSize=15;" vertex="1" parent="1">
                    <mxGeometry x="10" y="350" width="160" height="50" as="geometry"/>
                </mxCell>
                <mxCell id="3" value="Operating System" style="rounded=0;whiteSpace=wrap;html=1;fillColor=#a20025;fontColor=#ffffff;strokeColor=#000000;fontSize=15;" vertex="1" parent="1">
                    <mxGeometry x="200" y="330" width="190" height="70" as="geometry"/>
                </mxCell>
                <mxCell id="5" value="Hardware" style="rounded=0;whiteSpace=wrap;html=1;fillColor=#6a00ff;fontColor=#ffffff;strokeColor=#000000;fontSize=15;" vertex="1" parent="1">
                    <mxGeometry x="10" y="400" width="160" height="40" as="geometry"/>
                </mxCell>
                <mxCell id="6" value="Hardware" style="rounded=0;whiteSpace=wrap;html=1;fillColor=#6a00ff;fontColor=#ffffff;strokeColor=#000000;fontSize=15;" vertex="1" parent="1">
                    <mxGeometry x="200" y="400" width="190" height="40" as="geometry"/>
                </mxCell>
                <mxCell id="7" value="Hardware" style="rounded=0;whiteSpace=wrap;html=1;fillColor=#6a00ff;fontColor=#ffffff;strokeColor=#000000;fontSize=15;" vertex="1" parent="1">
                    <mxGeometry x="420" y="400" width="160" height="40" as="geometry"/>
                </mxCell>
                <mxCell id="8" value="Hypervisor" style="rounded=0;whiteSpace=wrap;html=1;fillColor=#d80073;fontColor=#ffffff;strokeColor=#000000;fontSize=15;" vertex="1" parent="1">
                    <mxGeometry x="200" y="250" width="150" height="50" as="geometry"/>
                </mxCell>
                <mxCell id="9" value="Operating System" style="rounded=0;whiteSpace=wrap;html=1;fillColor=#a20025;fontColor=#ffffff;strokeColor=#000000;fontSize=15;" vertex="1" parent="1">
                    <mxGeometry x="420" y="330" width="160" height="70" as="geometry"/>
                </mxCell>
                <mxCell id="10" value="OS" style="rounded=0;whiteSpace=wrap;html=1;fillColor=#a20025;fontColor=#ffffff;strokeColor=#000000;fontSize=15;" vertex="1" parent="1">
                    <mxGeometry x="17.5" y="287.5" width="82.5" height="50" as="geometry"/>
                </mxCell>
                <mxCell id="11" value="OS" style="rounded=0;whiteSpace=wrap;html=1;fillColor=#a20025;fontColor=#ffffff;strokeColor=#000000;fontSize=15;" vertex="1" parent="1">
                    <mxGeometry x="120" y="287.5" width="40" height="50" as="geometry"/>
                </mxCell>
                <mxCell id="12" value="Libraries" style="rounded=0;whiteSpace=wrap;html=1;fillColor=#60a917;fontColor=#ffffff;strokeColor=#000000;fontSize=15;" vertex="1" parent="1">
                    <mxGeometry x="17.5" y="257.5" width="82.5" height="30" as="geometry"/>
                </mxCell>
                <mxCell id="13" value="Libs" style="rounded=0;whiteSpace=wrap;html=1;fillColor=#60a917;fontColor=#ffffff;strokeColor=#000000;fontSize=15;" vertex="1" parent="1">
                    <mxGeometry x="120" y="257.5" width="40" height="30" as="geometry"/>
                </mxCell>
                <mxCell id="20" value="Process" style="rounded=0;whiteSpace=wrap;html=1;rotation=-90;fillColor=#0050ef;strokeColor=#000000;fontSize=15;fontColor=#FFFFFF;" vertex="1" parent="1">
                    <mxGeometry x="82.5" y="180" width="115" height="40" as="geometry"/>
                </mxCell>
                <mxCell id="22" value="Libraries" style="rounded=0;whiteSpace=wrap;html=1;fillColor=#60a917;fontColor=#ffffff;strokeColor=#000000;fontSize=15;" vertex="1" parent="1">
                    <mxGeometry x="200" y="300" width="190" height="30" as="geometry"/>
                </mxCell>
                <mxCell id="23" value="" style="rounded=0;whiteSpace=wrap;html=1;fillColor=#0050ef;fontColor=#ffffff;strokeColor=#000000;" vertex="1" parent="1">
                    <mxGeometry x="350" y="145" width="40" height="155" as="geometry"/>
                </mxCell>
                <mxCell id="24" value="Process" style="text;html=1;strokeColor=none;fillColor=none;align=center;verticalAlign=middle;whiteSpace=wrap;rounded=0;rotation=-90;fontSize=15;fontColor=#FFFFFF;" vertex="1" parent="1">
                    <mxGeometry x="350" y="220" width="40" height="20" as="geometry"/>
                </mxCell>
                <mxCell id="25" value="Libraries" style="rounded=0;whiteSpace=wrap;html=1;fillColor=#60a917;fontColor=#ffffff;strokeColor=#000000;fontSize=15;" vertex="1" parent="1">
                    <mxGeometry x="420" y="300" width="160" height="30" as="geometry"/>
                </mxCell>
                <mxCell id="26" value="Libraries" style="rounded=0;whiteSpace=wrap;html=1;fillColor=#60a917;fontColor=#ffffff;strokeColor=#000000;fontSize=15;" vertex="1" parent="1">
                    <mxGeometry x="270" y="160" width="72.5" height="30" as="geometry"/>
                </mxCell>
                <mxCell id="29" value="OS" style="rounded=0;whiteSpace=wrap;html=1;fillColor=#a20025;fontColor=#ffffff;strokeColor=#000000;fontSize=15;" vertex="1" parent="1">
                    <mxGeometry x="270" y="190" width="72.5" height="50" as="geometry"/>
                </mxCell>
                <mxCell id="30" value="OS" style="rounded=0;whiteSpace=wrap;html=1;fillColor=#a20025;fontColor=#ffffff;strokeColor=#000000;fontSize=15;" vertex="1" parent="1">
                    <mxGeometry x="210" y="190" width="40" height="50" as="geometry"/>
                </mxCell>
                <mxCell id="31" value="Libs" style="rounded=0;whiteSpace=wrap;html=1;fillColor=#60a917;fontColor=#ffffff;strokeColor=#000000;fontSize=15;" vertex="1" parent="1">
                    <mxGeometry x="210" y="160" width="40" height="30" as="geometry"/>
                </mxCell>
                <mxCell id="32" value="Process" style="rounded=0;whiteSpace=wrap;html=1;rotation=-90;fillColor=#0050ef;strokeColor=#000000;fontSize=15;fontColor=#FFFFFF;" vertex="1" parent="1">
                    <mxGeometry x="197.5" y="107.5" width="65" height="40" as="geometry"/>
                </mxCell>
                <mxCell id="33" value="" style="rounded=0;whiteSpace=wrap;html=1;strokeColor=#000000;" vertex="1" parent="1">
                    <mxGeometry x="420" y="80" width="100" height="220" as="geometry"/>
                </mxCell>
                <mxCell id="34" value="Libraries" style="rounded=0;whiteSpace=wrap;html=1;fillColor=#60a917;fontColor=#ffffff;strokeColor=#000000;fontSize=15;" vertex="1" parent="1">
                    <mxGeometry x="430" y="260" width="80" height="30" as="geometry"/>
                </mxCell>
                <mxCell id="37" value="" style="rounded=0;whiteSpace=wrap;html=1;fillColor=#0050ef;fontColor=#ffffff;strokeColor=#000000;" vertex="1" parent="1">
                    <mxGeometry x="430" y="140" width="40" height="120" as="geometry"/>
                </mxCell>
                <mxCell id="38" value="" style="rounded=0;whiteSpace=wrap;html=1;fillColor=#0050ef;fontColor=#ffffff;strokeColor=#000000;" vertex="1" parent="1">
                    <mxGeometry x="470" y="160" width="40" height="100" as="geometry"/>
                </mxCell>
                <mxCell id="39" value="Process" style="text;html=1;strokeColor=none;fillColor=none;align=center;verticalAlign=middle;whiteSpace=wrap;rounded=0;rotation=-90;fontSize=15;fontColor=#FFFFFF;" vertex="1" parent="1">
                    <mxGeometry x="430" y="195" width="40" height="20" as="geometry"/>
                </mxCell>
                <mxCell id="40" value="Process" style="text;html=1;strokeColor=none;fillColor=none;align=center;verticalAlign=middle;whiteSpace=wrap;rounded=0;rotation=-90;fontSize=15;fontColor=#FFFFFF;" vertex="1" parent="1">
                    <mxGeometry x="470" y="202.5" width="40" height="20" as="geometry"/>
                </mxCell>
                <mxCell id="41" value="" style="rounded=0;whiteSpace=wrap;html=1;strokeColor=#000000;" vertex="1" parent="1">
                    <mxGeometry x="520" y="80" width="60" height="220" as="geometry"/>
                </mxCell>
                <mxCell id="42" value="Libs" style="rounded=0;whiteSpace=wrap;html=1;fillColor=#60a917;fontColor=#ffffff;strokeColor=#000000;fontSize=15;" vertex="1" parent="1">
                    <mxGeometry x="530" y="260" width="40" height="30" as="geometry"/>
                </mxCell>
                <mxCell id="43" value="" style="rounded=0;whiteSpace=wrap;html=1;fillColor=#0050ef;fontColor=#ffffff;strokeColor=#000000;" vertex="1" parent="1">
                    <mxGeometry x="530" y="120" width="40" height="140" as="geometry"/>
                </mxCell>
                <mxCell id="45" value="Process" style="text;html=1;strokeColor=none;fillColor=none;align=center;verticalAlign=middle;whiteSpace=wrap;rounded=0;rotation=-90;fontSize=15;fontColor=#FFFFFF;" vertex="1" parent="1">
                    <mxGeometry x="530" y="185" width="40" height="20" as="geometry"/>
                </mxCell>
                <mxCell id="50" value="" style="rounded=0;whiteSpace=wrap;html=1;fillColor=#0050ef;fontColor=#ffffff;strokeColor=#000000;" vertex="1" parent="1">
                    <mxGeometry x="17.5" y="170" width="42.5" height="87.5" as="geometry"/>
                </mxCell>
                <mxCell id="51" value="" style="rounded=0;whiteSpace=wrap;html=1;fillColor=#0050ef;strokeColor=#001DBC;fontColor=#ffffff;" vertex="1" parent="1">
                    <mxGeometry x="60" y="157.5" width="40" height="100" as="geometry"/>
                </mxCell>
                <mxCell id="52" value="Process" style="text;html=1;strokeColor=none;fillColor=none;align=center;verticalAlign=middle;whiteSpace=wrap;rounded=0;rotation=-90;fontSize=15;fontColor=#FFFFFF;" vertex="1" parent="1">
                    <mxGeometry x="60" y="202.5" width="40" height="20" as="geometry"/>
                </mxCell>
                <mxCell id="53" value="Process" style="text;html=1;strokeColor=none;fillColor=none;align=center;verticalAlign=middle;whiteSpace=wrap;rounded=0;rotation=-90;fontSize=15;fontColor=#FFFFFF;" vertex="1" parent="1">
                    <mxGeometry x="20" y="205" width="40" height="20" as="geometry"/>
                </mxCell>
                <mxCell id="58" value="" style="rounded=0;whiteSpace=wrap;html=1;fillColor=#0050ef;fontColor=#ffffff;strokeColor=#000000;" vertex="1" parent="1">
                    <mxGeometry x="310" y="60" width="32.5" height="100" as="geometry"/>
                </mxCell>
                <mxCell id="59" value="" style="rounded=0;whiteSpace=wrap;html=1;fillColor=#0050ef;fontColor=#ffffff;strokeColor=#000000;" vertex="1" parent="1">
                    <mxGeometry x="270" y="90" width="40" height="70" as="geometry"/>
                </mxCell>
                <mxCell id="60" value="Process" style="text;html=1;strokeColor=none;fillColor=none;align=center;verticalAlign=middle;whiteSpace=wrap;rounded=0;rotation=-90;fontSize=15;fontColor=#FFFFFF;" vertex="1" parent="1">
                    <mxGeometry x="270" y="120" width="40" height="20" as="geometry"/>
                </mxCell>
                <mxCell id="61" value="Process" style="text;html=1;strokeColor=none;fillColor=none;align=center;verticalAlign=middle;whiteSpace=wrap;rounded=0;rotation=-90;fontSize=15;fontColor=#FFFFFF;" vertex="1" parent="1">
                    <mxGeometry x="306.25" y="107.5" width="40" height="20" as="geometry"/>
                </mxCell>
                <mxCell id="62" value="Virtual Machine" style="text;html=1;strokeColor=none;fillColor=none;align=center;verticalAlign=middle;whiteSpace=wrap;rounded=0;" vertex="1" parent="1">
                    <mxGeometry x="40" y="115" width="40" height="20" as="geometry"/>
                </mxCell>
                <mxCell id="63" value="Virtual Machine" style="text;html=1;strokeColor=none;fillColor=none;align=center;verticalAlign=middle;whiteSpace=wrap;rounded=0;" vertex="1" parent="1">
                    <mxGeometry x="120" y="115" width="40" height="20" as="geometry"/>
                </mxCell>
                <mxCell id="64" value="Virtual Machine" style="text;html=1;strokeColor=none;fillColor=none;align=center;verticalAlign=middle;whiteSpace=wrap;rounded=0;" vertex="1" parent="1">
                    <mxGeometry x="286.25" y="20" width="40" height="20" as="geometry"/>
                </mxCell>
                <mxCell id="65" value="Virtual Machine" style="text;html=1;strokeColor=none;fillColor=none;align=center;verticalAlign=middle;whiteSpace=wrap;rounded=0;" vertex="1" parent="1">
                    <mxGeometry x="210" y="20" width="40" height="20" as="geometry"/>
                </mxCell>
                <mxCell id="66" value="Container" style="text;html=1;strokeColor=none;fillColor=none;align=center;verticalAlign=middle;whiteSpace=wrap;rounded=0;" vertex="1" parent="1">
                    <mxGeometry x="450" y="90" width="40" height="20" as="geometry"/>
                </mxCell>
                <mxCell id="67" value="Container" style="text;html=1;strokeColor=none;fillColor=none;align=center;verticalAlign=middle;whiteSpace=wrap;rounded=0;" vertex="1" parent="1">
                    <mxGeometry x="530" y="90" width="40" height="20" as="geometry"/>
                </mxCell>
                <mxCell id="68" value="Type 1 Hypervisor" style="text;html=1;strokeColor=none;fillColor=none;align=center;verticalAlign=middle;whiteSpace=wrap;rounded=0;fontSize=15;" vertex="1" parent="1">
                    <mxGeometry x="10" y="440" width="160" height="20" as="geometry"/>
                </mxCell>
                <mxCell id="69" value="Type 2 Hypervisor" style="text;html=1;strokeColor=none;fillColor=none;align=center;verticalAlign=middle;whiteSpace=wrap;rounded=0;fontSize=15;" vertex="1" parent="1">
                    <mxGeometry x="200" y="440" width="190" height="20" as="geometry"/>
                </mxCell>
                <mxCell id="70" value="Containers" style="text;html=1;strokeColor=none;fillColor=none;align=center;verticalAlign=middle;whiteSpace=wrap;rounded=0;fontSize=15;" vertex="1" parent="1">
                    <mxGeometry x="420" y="440" width="160" height="20" as="geometry"/>
                </mxCell>
            </root>
        </mxGraphModel>
    </diagram>
</mxfile>